<svg width="15" height="15" viewBox="0 0 15 15" fill="none" xmlns="http://www.w3.org/2000/svg">
<path fill-rule="evenodd" clip-rule="evenodd" d="M8.94915 8.94906C7.7664 10.1603 7.68321 11.679 7.58299 14.9998C10.6745 14.9998 12.8162 14.9898 13.9158 13.9158C14.9895 12.8165 14.9998 10.5738 15.0001 7.58291C11.6791 7.68313 10.1604 7.76628 8.94915 8.94906ZM0.00012207 7.58291C0.00012207 10.5738 0.0104092 12.8165 1.0841 13.9158C2.18366 14.9898 4.32577 14.9998 7.41721 14.9998C7.31699 11.679 7.2338 10.1603 6.05108 8.94906C4.83983 7.76628 3.32115 7.68313 0.00012207 7.58291ZM7.4174 0C4.32596 0.000293856 2.18385 0.0105789 1.08429 1.08433C0.010601 2.18364 0.000313767 4.42634 0.000313767 7.41722C3.32133 7.317 4.84002 7.23384 6.05127 6.05106C7.23399 4.83981 7.31718 3.32116 7.4174 0ZM8.94915 6.05106C7.7664 4.83981 7.68321 3.32116 7.58299 0C10.6745 0.000293856 12.8162 0.0105789 13.9158 1.08433C14.9895 2.18364 14.9998 4.42634 15.0001 7.41722C11.6791 7.317 10.1604 7.23384 8.94915 6.05106Z" fill="url(#paint0_linear)"/>
<defs>
<linearGradient id="paint0_linear" x1="15.0001" y1="14.9998" x2="15.0001" y2="0" gradientUnits="userSpaceOnUse">
<stop stop-color="white" stop-opacity="0.01"/>
<stop offset="0.47509" stop-color="white" stop-opacity="0.01"/>
<stop offset="0.76042" stop-color="white" stop-opacity="0.04271"/>
<stop offset="0.99531" stop-color="white" stop-opacity="0.09855"/>
<stop offset="1" stop-color="white" stop-opacity="0.1"/>
</linearGradient>
</defs>
</svg>
