<svg width="58" height="46" viewBox="0 0 58 46" fill="none" xmlns="http://www.w3.org/2000/svg">
<path d="M36.7068 32.3806H21.4259V3.93045H36.7068V32.3806Z" fill="#6C6BBD"/>
<path d="M22.3974 18.1558C22.3974 12.3925 25.0031 7.24674 29.066 3.9306C26.0851 1.50638 22.3532 0.065567 18.2679 0.065567C8.61784 0.065567 0.800552 8.16153 0.800552 18.1558C0.800552 28.1499 8.61784 36.2458 18.2679 36.2458C22.3532 36.2458 26.0851 34.805 29.066 32.3808C25.0031 29.0647 22.3974 23.9418 22.3974 18.1558Z" fill="#D32011"/>
<path d="M57.3315 18.1558C57.3315 28.1499 49.5152 36.2458 39.865 36.2458C35.7794 36.2458 32.0478 34.805 29.066 32.3808C33.1297 29.0647 35.7355 23.9189 35.7355 18.1558C35.7355 12.3925 33.1297 7.24674 29.066 3.9306C32.0478 1.50638 35.7794 0.065567 39.865 0.065567C49.5152 0.065567 57.3315 8.16153 57.3315 18.1558Z" fill="#0099DF"/>
<path d="M41.8745 40.4308C42.0729 40.4308 42.3601 40.4766 42.6034 40.5681L42.2943 41.5515C42.0729 41.46 41.8745 41.4372 41.6531 41.4372C40.9909 41.4372 40.6598 41.8717 40.6598 42.6721V45.3479H39.6666V40.5452H40.6598V41.1398C40.9251 40.7053 41.3001 40.4308 41.8745 40.4308ZM38.1428 41.5057H36.4864V43.6784C36.4864 44.1587 36.641 44.4788 37.1486 44.4788C37.4138 44.4788 37.7449 44.3873 38.0321 44.2044L38.3193 45.0963C38.0102 45.325 37.5016 45.4622 37.0608 45.4622C35.8681 45.4622 35.4483 44.799 35.4483 43.6784V41.4829H34.4989V40.5452H35.4483V39.0815H36.4645V40.5452H38.1199V41.5057H38.1428ZM25.2241 42.5349C25.3345 41.8488 25.732 41.3685 26.4607 41.3685C27.1011 41.3685 27.5206 41.7802 27.6311 42.5349H25.2241ZM28.6911 42.9466C28.6911 41.46 27.7857 40.4308 26.4828 40.4308C25.1137 40.4308 24.1641 41.46 24.1641 42.9466C24.1641 44.4788 25.1578 45.4622 26.549 45.4622C27.2557 45.4622 27.8961 45.2793 28.4482 44.799L27.9623 44.0214C27.5648 44.3416 27.0791 44.5246 26.6152 44.5246C25.9749 44.5246 25.3787 44.2044 25.2241 43.3583H28.6689C28.6911 43.221 28.6911 43.0837 28.6911 42.9466ZM33.1297 41.7802C32.8425 41.5972 32.2681 41.3685 31.6947 41.3685C31.1423 41.3685 30.8112 41.5743 30.8112 41.9402C30.8112 42.2605 31.1642 42.3519 31.606 42.4206L32.0916 42.4892C33.1078 42.6492 33.7042 43.0837 33.7042 43.93C33.7042 44.8447 32.9313 45.508 31.584 45.508C30.8331 45.508 30.1261 45.3022 29.5746 44.8905L30.0603 44.0672C30.3914 44.3416 30.8989 44.5703 31.606 44.5703C32.2901 44.5703 32.666 44.3645 32.666 43.9757C32.666 43.7012 32.4008 43.5641 31.8493 43.4726L31.3627 43.4039C30.3255 43.2438 29.7511 42.7636 29.7511 41.986C29.7511 41.0255 30.502 40.4537 31.6718 40.4537C32.4008 40.4537 33.0859 40.6138 33.5715 40.9568L33.1297 41.7802ZM45.5622 41.4142C45.3638 41.4142 45.1643 41.46 44.9878 41.5286C44.8113 41.5972 44.6567 41.7116 44.5241 41.8488C44.3915 41.986 44.2818 42.1461 44.215 42.3291C44.1491 42.512 44.1043 42.7178 44.1043 42.9466C44.1043 43.1752 44.1491 43.3811 44.215 43.5641C44.2818 43.747 44.3915 43.9071 44.5241 44.0443C44.6567 44.1815 44.8113 44.2959 44.9878 44.3645C45.1643 44.4331 45.3638 44.4788 45.5622 44.4788C45.7607 44.4788 45.9601 44.4331 46.1366 44.3645C46.3131 44.2959 46.4677 44.1815 46.6003 44.0443C46.733 43.9071 46.8427 43.747 46.9095 43.5641C46.9753 43.3811 47.0192 43.1752 47.0192 42.9466C47.0192 42.7178 46.9753 42.512 46.9095 42.3291C46.8427 42.1461 46.733 41.986 46.6003 41.8488C46.4677 41.7116 46.3131 41.5972 46.1366 41.5286C45.982 41.46 45.7826 41.4142 45.5622 41.4142ZM45.5622 40.4308C45.9152 40.4308 46.2463 40.4995 46.5555 40.6367C46.8646 40.7739 47.1299 40.934 47.3512 41.1626C47.5716 41.3914 47.7481 41.6658 47.8808 41.9632C48.0134 42.2833 48.0792 42.6035 48.0792 42.9694C48.0792 43.3353 48.0134 43.6784 47.8808 43.9757C47.7481 44.273 47.5716 44.5474 47.3512 44.7762C47.1299 45.0048 46.8646 45.1878 46.5555 45.3022C46.2463 45.4394 45.9152 45.4851 45.5622 45.4851C45.2092 45.4851 44.8771 45.4165 44.568 45.3022C44.2588 45.1649 43.9946 45.0048 43.7732 44.7762C43.5528 44.5474 43.3763 44.273 43.2436 43.9757C43.111 43.6555 43.0452 43.3353 43.0452 42.9694C43.0452 42.6035 43.111 42.2604 43.2436 41.9632C43.3763 41.6658 43.5528 41.3914 43.7732 41.1626C43.9946 40.934 44.2588 40.751 44.568 40.6367C44.8771 40.4766 45.2092 40.4308 45.5622 40.4308ZM19.328 42.9466C19.328 42.1003 19.858 41.4142 20.7414 41.4142C21.5804 41.4142 22.1325 42.0775 22.1325 42.9466C22.1325 43.8156 21.5584 44.4788 20.7414 44.4788C19.8801 44.4788 19.328 43.7927 19.328 42.9466ZM23.1042 42.9466V40.5452H22.0883V41.1398C21.7571 40.7053 21.2934 40.4308 20.6309 40.4308C19.328 40.4308 18.3122 41.4829 18.3122 42.9466C18.3122 44.4102 19.328 45.4622 20.6309 45.4622C21.2934 45.4622 21.7792 45.1878 22.0883 44.7532V45.3479H23.1042V42.9466ZM17.4068 45.3479V42.3291C17.4068 41.1856 16.7002 40.4308 15.574 40.4308C14.9778 40.4308 14.3595 40.6138 13.9398 41.2771C13.6307 40.751 13.1228 40.4308 12.4162 40.4308C11.9303 40.4308 11.4446 40.5909 11.0471 41.1398V40.5452H10.0312V45.3479H11.0471V42.695C11.0471 41.8717 11.4887 41.4142 12.1733 41.4142C12.8357 41.4142 13.189 41.8717 13.189 42.6721V45.3479H14.2049V42.695C14.2049 41.8717 14.6686 41.4142 15.3311 41.4142C16.0157 41.4142 16.3469 41.8717 16.3469 42.6721V45.3479H17.4068Z" fill="white"/>
</svg>
