<svg width="58" height="46" viewBox="0 0 58 46" fill="none" xmlns="http://www.w3.org/2000/svg">
<path d="M11.2734 45.3935V42.3716C11.2734 41.227 10.5882 40.4715 9.4387 40.4715C8.86401 40.4715 8.22297 40.6775 7.78087 41.3186C7.4493 40.7692 6.96299 40.4715 6.23353 40.4715C5.74723 40.4715 5.26092 40.6318 4.88513 41.1812V40.5859H3.86832V45.3935H4.88513V42.738C4.88513 41.8909 5.32723 41.4788 5.99038 41.4788C6.65352 41.4788 7.0072 41.9366 7.0072 42.738V45.3935H8.02402V42.738C8.02402 41.8909 8.51033 41.4788 9.12926 41.4788C9.81456 41.4788 10.1461 41.9366 10.1461 42.738V45.3935H11.2734ZM26.3711 40.5631H24.7132V39.0979H23.6964V40.5631H22.768V41.5246H23.6964V43.7452C23.6964 44.8441 24.1385 45.508 25.2879 45.508C25.73 45.508 26.2163 45.3477 26.5479 45.1646L26.2605 44.2488C25.9732 44.4549 25.6195 44.5007 25.3763 44.5007C24.89 44.5007 24.691 44.2031 24.691 43.6994V41.5475H26.3489V40.5631H26.3711ZM35.0141 40.4715C34.4394 40.4715 34.0415 40.7692 33.7982 41.1812V40.5859H32.7815V45.3935H33.7982V42.6693C33.7982 41.8679 34.1298 41.4101 34.7709 41.4101C34.9698 41.4101 35.213 41.456 35.412 41.5017L35.6993 40.4944C35.5003 40.4715 35.213 40.4715 35.0141 40.4715ZM21.95 40.9752C21.4638 40.6318 20.7785 40.4715 20.049 40.4715C18.8775 40.4715 18.1038 41.0667 18.1038 42.0282C18.1038 42.8295 18.6785 43.2873 19.6954 43.4247L20.1817 43.4705C20.7122 43.562 20.9996 43.7223 20.9996 43.9741C20.9996 44.3175 20.6017 44.5694 19.9385 44.5694C19.2754 44.5694 18.7228 44.3175 18.3912 44.0657L17.9049 44.8669C18.4354 45.279 19.1649 45.4621 19.8944 45.4621C21.2427 45.4621 22.0385 44.7983 22.0385 43.9054C22.0385 43.0584 21.3975 42.6006 20.4469 42.4403L19.9607 42.3946C19.5185 42.3487 19.1869 42.2343 19.1869 41.9366C19.1869 41.5932 19.5185 41.3873 20.0712 41.3873C20.6459 41.3873 21.2427 41.6391 21.5301 41.7993L21.95 40.9752ZM49.0285 40.4715C48.4538 40.4715 48.0559 40.7692 47.8127 41.1812V40.5859H46.7959V45.3935H47.8127V42.6693C47.8127 41.8679 48.1443 41.4101 48.7854 41.4101C48.9842 41.4101 49.2275 41.456 49.4264 41.5017L49.7137 40.4944C49.5148 40.4715 49.2275 40.4715 49.0285 40.4715ZM36.0308 42.9898C36.0308 44.4549 37.0034 45.508 38.5066 45.508C39.1919 45.508 39.6782 45.3477 40.1645 44.9586L39.6782 44.1115C39.2803 44.4091 38.9044 44.5694 38.4624 44.5694C37.6445 44.5694 37.0477 43.9741 37.0477 43.0127C37.0477 42.0969 37.6224 41.5017 38.4624 41.456C38.9044 41.456 39.2803 41.6161 39.6782 41.9138L40.1645 41.0667C39.6782 40.6546 39.1919 40.5173 38.5066 40.5173C37.0034 40.4715 36.0308 41.5245 36.0308 42.9898ZM45.4475 42.9898V40.5859H44.4307V41.1812C44.0991 40.7233 43.6128 40.4715 42.9718 40.4715C41.6676 40.4715 40.6508 41.5245 40.6508 42.9898C40.6508 44.4549 41.6676 45.508 42.9718 45.508C43.657 45.508 44.1433 45.2561 44.4307 44.7983V45.3935H45.4475V42.9898ZM41.7119 42.9898C41.7119 42.1427 42.2423 41.433 43.1265 41.433C43.9444 41.433 44.5412 42.0969 44.5412 42.9898C44.5412 43.8367 43.9665 44.5465 43.1265 44.5465C42.2423 44.5007 41.7119 43.8367 41.7119 42.9898ZM29.5321 40.4715C28.1836 40.4715 27.211 41.4788 27.211 42.9898C27.211 44.5007 28.1836 45.508 29.5983 45.508C30.2836 45.508 30.9468 45.302 31.4993 44.8441L31.0131 44.0886C30.6152 44.3862 30.1288 44.5922 29.6646 44.5922C29.0236 44.5922 28.4047 44.2947 28.2499 43.4476H31.6983V43.0355C31.7204 41.4788 30.8363 40.4715 29.5321 40.4715ZM29.5321 41.3644C30.1731 41.3644 30.593 41.7764 30.7036 42.509H28.2721C28.3604 41.8679 28.8026 41.3644 29.5321 41.3644ZM54.8199 42.9898V38.663H53.8032V41.1812C53.4716 40.7233 52.9852 40.4715 52.3442 40.4715C51.04 40.4715 50.0233 41.5245 50.0233 42.9898C50.0233 44.4549 51.04 45.508 52.3442 45.508C53.0295 45.508 53.5158 45.2561 53.8032 44.7983V45.3935H54.8199V42.9898ZM51.0622 42.9898C51.0622 42.1427 51.5927 41.433 52.4768 41.433C53.2948 41.433 53.8916 42.0969 53.8916 42.9898C53.8916 43.8367 53.3168 44.5465 52.4768 44.5465C51.6147 44.5007 51.0622 43.8367 51.0622 42.9898ZM16.9986 42.9898V40.5859H15.9817V41.1812C15.6501 40.7233 15.1639 40.4715 14.5229 40.4715C13.2187 40.4715 12.2018 41.5245 12.2018 42.9898C12.2018 44.4549 13.2187 45.508 14.5229 45.508C15.2081 45.508 15.6944 45.2561 15.9817 44.7983V45.3935H16.9986V42.9898ZM13.2187 42.9898C13.2187 42.1427 13.7491 41.433 14.6334 41.433C15.4512 41.433 16.048 42.0969 16.048 42.9898C16.048 43.8367 15.4733 44.5465 14.6334 44.5465C13.7491 44.5007 13.2187 43.8367 13.2187 42.9898Z" fill="white"/>
<path d="M36.9149 3.93448H21.6184V32.3905H36.9149V3.93448Z" fill="#FF5F00"/>
<path d="M22.5909 18.151C22.5909 12.382 25.2214 7.25397 29.2445 3.93449C26.2824 1.53072 22.5467 0.065567 18.4573 0.065567C8.79747 0.065567 0.99446 8.1468 0.99446 18.151C0.99446 28.1553 8.79747 36.2365 18.4573 36.2365C22.5246 36.2365 26.2603 34.7713 29.2223 32.3676C25.1992 29.1168 22.5909 23.943 22.5909 18.151Z" fill="#EB001B"/>
<path d="M57.5164 18.151C57.5164 28.1553 49.7133 36.2365 40.0535 36.2365C35.9862 36.2365 32.2504 34.7713 29.2885 32.3676C33.3557 29.0481 35.942 23.92 35.942 18.151C35.942 12.382 33.3115 7.25397 29.2885 3.93449C32.2504 1.53072 35.9862 0.065567 40.0535 0.065567C49.7133 0.065567 57.5164 8.21547 57.5164 18.151Z" fill="#F79E1B"/>
</svg>
