<svg width="54" height="16" viewBox="0 0 54 16" fill="none" xmlns="http://www.w3.org/2000/svg">
<path fill-rule="evenodd" clip-rule="evenodd" d="M38.9076 7.1297V15.6226H43.4629V10.5897H48.6266C50.7996 10.573 52.6454 9.13537 53.3415 7.1297H38.9076Z" fill="white"/>
<path fill-rule="evenodd" clip-rule="evenodd" d="M38.2993 0.131134C38.5645 3.60264 41.7357 6.34355 45.609 6.34355C45.6219 6.34355 53.531 6.34355 53.531 6.34355C53.5888 6.02525 53.6197 5.69662 53.6197 5.36065C53.6197 2.48496 51.3799 0.152409 48.6086 0.131236L38.2993 0.131134Z" fill="white"/>
<path fill-rule="evenodd" clip-rule="evenodd" d="M31.557 6.26094L31.56 6.25308L31.561 6.25318C31.6079 6.16632 31.6966 6.10766 31.7993 6.10766C31.9479 6.10766 32.0686 6.23015 32.0726 6.3829V15.5443H36.6289V0.131134H32.0726C31.4952 0.151067 30.843 0.590106 30.5997 1.12912L26.9747 9.18145C26.9658 9.21439 26.9518 9.24507 26.9329 9.27265L26.9318 9.27532V9.27522C26.877 9.35692 26.7853 9.41052 26.6815 9.41052C26.514 9.41052 26.3784 9.26965 26.3784 9.09593V0.131134H21.8223V15.5443H26.3784V15.5426C26.9498 15.5116 27.587 15.0775 27.8264 14.5464L31.547 6.28169C31.55 6.27467 31.553 6.26775 31.557 6.26094Z" fill="white"/>
<path fill-rule="evenodd" clip-rule="evenodd" d="M14.5447 6.5244L11.882 15.5443H8.60456L5.94027 6.51892C5.91454 6.37443 5.79228 6.26496 5.64529 6.26496C5.47965 6.26496 5.34532 6.40397 5.34532 6.57552C5.34532 6.57686 5.34532 6.5782 5.34542 6.57954L5.34532 15.5443H0.789474V0.131134H4.69991H5.86458C6.70285 0.131134 7.5813 0.804926 7.82632 1.63477L10.0435 9.14551C10.1539 9.51927 10.3328 9.51886 10.443 9.14551L12.6602 1.63477C12.9054 0.804307 13.7836 0.131134 14.622 0.131134H15.7862H19.6963V15.5443H15.1405V6.57954C15.1405 6.5782 15.1405 6.57686 15.1405 6.57552C15.1405 6.40397 15.0062 6.26496 14.8405 6.26496C14.6918 6.26496 14.5682 6.37722 14.5447 6.5244Z" fill="white"/>
</svg>
