<svg width="57" height="19" viewBox="0 0 57 19" fill="none" xmlns="http://www.w3.org/2000/svg">
<path d="M25.0293 18.3876H20.5364L23.3466 0.391815H27.8393L25.0293 18.3876Z" fill="white"/>
<path d="M41.3165 0.831671C40.4302 0.467614 39.0246 0.0655518 37.2866 0.0655518C32.8497 0.0655518 29.7253 2.51594 29.7061 6.01916C29.6692 8.60391 31.9431 10.0395 33.6438 10.9013C35.382 11.782 35.9729 12.3568 35.9729 13.1418C35.9552 14.3473 34.5683 14.9031 33.2747 14.9031C31.481 14.9031 30.5198 14.6166 29.0592 13.9458L28.4675 13.6583L27.8388 17.698C28.8926 18.1952 30.8341 18.6364 32.8497 18.6557C37.564 18.6557 40.6332 16.2432 40.6696 12.51C40.6875 10.4614 39.4867 8.89165 36.8981 7.60903C35.3267 6.78559 34.3644 6.23036 34.3644 5.38791C34.3828 4.622 35.1783 3.83749 36.9523 3.83749C38.4128 3.79907 39.486 4.16272 40.299 4.52657L40.7054 4.71764L41.3165 0.831671Z" fill="white"/>
<path d="M47.2882 12.0123C47.6581 10.9785 49.082 6.97728 49.082 6.97728C49.0632 7.0157 49.4513 5.92436 49.673 5.25439L49.9871 6.80501C49.9871 6.80501 50.8379 11.1126 51.0227 12.0123C50.3204 12.0123 48.1756 12.0123 47.2882 12.0123ZM52.8342 0.391815H49.3588C48.2871 0.391815 47.473 0.717038 47.0105 1.88491L40.3369 18.3873H45.0512C45.0512 18.3873 45.8273 16.1663 45.9941 15.6879C46.5113 15.6879 51.0973 15.6879 51.7626 15.6879C51.8917 16.3197 52.2987 18.3873 52.2987 18.3873H56.4588L52.8342 0.391815Z" fill="white"/>
<path d="M16.7836 0.391815L12.3835 12.6632L11.9027 10.1745C11.0892 7.30271 8.53795 4.18266 5.69088 2.63121L9.72122 18.3685H14.4723L21.5345 0.391815H16.7836Z" fill="white"/>
<path d="M8.29711 0.391815H1.06841L0.99446 0.755459C6.6333 2.24876 10.3678 5.84854 11.9022 10.1752L10.3307 1.90454C10.0719 0.755152 9.27695 0.429718 8.29711 0.391815Z" fill="white"/>
</svg>
