<svg width="127" height="46" viewBox="0 0 127 46" fill="none" xmlns="http://www.w3.org/2000/svg">
<path d="M123.934 45.4985C124.761 45.5352 125.462 44.8939 125.499 44.0663L126.095 30.5795C126.132 29.7519 125.491 29.0513 124.663 29.0147C123.835 28.978 123.135 29.6193 123.098 30.4469L122.568 42.4352L110.579 41.9048C109.752 41.8681 109.051 42.5094 109.015 43.337C108.978 44.1646 109.619 44.8652 110.447 44.9018L123.934 45.4985ZM3.89203 8.9655C4.6866 8.73109 5.1407 7.89693 4.90629 7.10236C4.67187 6.30779 3.83772 5.8537 3.04315 6.08811L3.89203 8.9655ZM9.07829 4.43277C8.27515 4.63586 7.7887 5.45158 7.99179 6.25472C8.19488 7.05787 9.0106 7.54431 9.81375 7.34123L9.07829 4.43277ZM14.7901 6.17729C15.6001 6.00353 16.1159 5.20604 15.9421 4.39604C15.7684 3.58604 14.9709 3.07026 14.1609 3.24402L14.7901 6.17729ZM20.3242 2.07257C19.5068 2.20754 18.9537 2.97955 19.0886 3.79691C19.2236 4.61427 19.9956 5.16745 20.813 5.03248L20.3242 2.07257ZM25.8618 4.30808C26.6842 4.20815 27.2698 3.46047 27.1699 2.63809C27.07 1.81571 26.3223 1.23005 25.4999 1.32998L25.8618 4.30808ZM31.7531 0.741029C30.9265 0.795947 30.3009 1.51056 30.3558 2.33717C30.4108 3.16377 31.1254 3.78935 31.952 3.73443L31.7531 0.741029ZM37.0443 3.51761C37.8726 3.50234 38.5317 2.81851 38.5164 1.99023C38.5012 1.16194 37.8173 0.502854 36.989 0.518117L37.0443 3.51761ZM43.2745 0.589142C42.4468 0.55485 41.748 1.19805 41.7137 2.02577C41.6794 2.85348 42.3226 3.55228 43.1503 3.58657L43.2745 0.589142ZM48.231 3.92765C49.0559 4.00447 49.7868 3.39806 49.8636 2.5732C49.9404 1.74834 49.334 1.01739 48.5092 0.940577L48.231 3.92765ZM54.7502 1.71977C53.9318 1.5913 53.1642 2.15059 53.0358 2.969C52.9073 3.7874 53.4666 4.555 54.285 4.68348L54.7502 1.71977ZM59.2883 5.60497C60.0988 5.77651 60.8949 5.25856 61.0664 4.44808C61.2379 3.63761 60.72 2.84153 59.9095 2.66999L59.2883 5.60497ZM66.0243 4.16808C65.2263 3.94563 64.3991 4.41221 64.1766 5.21022C63.9542 6.00822 64.4208 6.83546 65.2188 7.0579L66.0243 4.16808ZM70.0784 8.55007C70.8638 8.81368 71.7141 8.39071 71.9777 7.60534C72.2413 6.81998 71.8184 5.96961 71.033 5.706L70.0784 8.55007ZM76.9365 7.89118C76.1687 7.58014 75.2941 7.95044 74.9831 8.71827C74.672 9.48609 75.0423 10.3607 75.8102 10.6717L76.9365 7.89118ZM80.4868 12.7025C81.2384 13.051 82.1301 12.7242 82.4786 11.9726C82.8271 11.2211 82.5004 10.3293 81.7488 9.98081L80.4868 12.7025ZM87.362 12.7809C86.6314 12.3905 85.7226 12.6662 85.3321 13.3968C84.9416 14.1275 85.2174 15.0363 85.948 15.4268L87.362 12.7809ZM90.3867 17.9303C91.0989 18.3533 92.0193 18.1188 92.4423 17.4065C92.8653 16.6943 92.6308 15.7739 91.9186 15.3509L90.3867 17.9303ZM97.2281 18.6934C96.5385 18.2344 95.6073 18.4213 95.1483 19.111C94.6893 19.8006 94.8762 20.7318 95.5658 21.1908L97.2281 18.6934ZM99.7566 24.1052C100.427 24.5918 101.365 24.4426 101.852 23.7721C102.338 23.1016 102.189 22.1636 101.518 21.6771L99.7566 24.1052ZM106.508 25.4762C105.86 24.9595 104.916 25.0657 104.4 25.7134C103.883 26.361 103.989 27.3048 104.637 27.8214L106.508 25.4762ZM108.573 31.0789C109.202 31.6183 110.149 31.5459 110.688 30.9171C111.228 30.2883 111.155 29.3413 110.526 28.802L108.573 31.0789ZM115.195 32.9746C114.589 32.4104 113.639 32.4448 113.075 33.0514C112.511 33.658 112.545 34.6072 113.152 35.1713L115.195 32.9746ZM116.841 38.7127C117.43 39.2956 118.38 39.2909 118.963 38.7022C119.545 38.1135 119.541 37.1638 118.952 36.5809L116.841 38.7127ZM123.315 41.0574C122.747 40.4543 121.798 40.4256 121.195 40.9935C120.592 41.5613 120.563 42.5106 121.131 43.1138L123.315 41.0574ZM1.44559 9.70711C2.25149 9.45639 3.06705 9.20889 3.89203 8.9655L3.04315 6.08811C2.20343 6.33584 1.37376 6.58763 0.554405 6.84253L1.44559 9.70711ZM9.81375 7.34123C11.442 6.9295 13.1013 6.53957 14.7901 6.17729L14.1609 3.24402C12.4345 3.61436 10.7397 4.01265 9.07829 4.43277L9.81375 7.34123ZM20.813 5.03248C22.4718 4.75856 24.1552 4.51544 25.8618 4.30808L25.4999 1.32998C23.7491 1.54272 22.0234 1.79198 20.3242 2.07257L20.813 5.03248ZM31.952 3.73443C33.6302 3.62294 35.328 3.54923 37.0443 3.51761L36.989 0.518117C35.2233 0.550654 33.4776 0.626459 31.7531 0.741029L31.952 3.73443ZM43.1503 3.58657C44.8286 3.6561 46.5225 3.76855 48.231 3.92765L48.5092 0.940577C46.7483 0.776595 45.003 0.660752 43.2745 0.589142L43.1503 3.58657ZM54.285 4.68348C55.9407 4.94341 57.6088 5.24949 59.2883 5.60497L59.9095 2.66999C58.1776 2.30342 56.4575 1.98779 54.7502 1.71977L54.285 4.68348ZM65.2188 7.0579C66.8294 7.50687 68.4495 8.00335 70.0784 8.55007L71.033 5.706C69.3546 5.14265 67.6848 4.63093 66.0243 4.16808L65.2188 7.0579ZM75.8102 10.6717C77.3621 11.3004 78.9212 11.9765 80.4868 12.7025L81.7488 9.98081C80.1385 9.23417 78.5342 8.53839 76.9365 7.89118L75.8102 10.6717ZM85.948 15.4268C87.4226 16.2149 88.9023 17.0487 90.3867 17.9303L91.9186 15.3509C90.3957 14.4465 88.8767 13.5904 87.362 12.7809L85.948 15.4268ZM95.5658 21.1908C96.9594 22.1183 98.3564 23.0893 99.7566 24.1052L101.518 21.6771C100.086 20.6376 98.6556 19.6436 97.2281 18.6934L95.5658 21.1908ZM104.637 27.8214C105.947 28.8662 107.259 29.9517 108.573 31.0789L110.526 28.802C109.186 27.6518 107.846 26.5436 106.508 25.4762L104.637 27.8214ZM113.152 35.1713C114.38 36.3139 115.61 37.494 116.841 38.7127L118.952 36.5809C117.699 35.3405 116.447 34.1387 115.195 32.9746L113.152 35.1713ZM121.131 43.1138C121.718 43.7377 122.306 44.3707 122.893 45.0127L125.107 42.9873C124.509 42.3349 123.912 41.6917 123.315 41.0574L121.131 43.1138Z" fill="#C1DAE5"/>
</svg>
