<svg width="108" height="56" viewBox="0 0 108 56" fill="none" xmlns="http://www.w3.org/2000/svg">
<path d="M101.665 6.28037C102.465 6.0654 103.288 6.53971 103.503 7.33976L107.006 20.3773C107.221 21.1774 106.747 22.0002 105.947 22.2152C105.147 22.4302 104.324 21.9559 104.109 21.1558L100.995 9.56684L89.406 12.6807C88.6059 12.8956 87.7831 12.4213 87.5682 11.6213C87.3532 10.8212 87.8275 9.9984 88.6275 9.78343L101.665 6.28037ZM4.64569 36.2126C5.34111 36.6628 5.53991 37.5916 5.08971 38.287C4.63952 38.9824 3.71081 39.1812 3.01538 38.731L4.64569 36.2126ZM8.20706 41.8992C7.4882 41.4875 7.23922 40.571 7.65096 39.8521C8.06269 39.1332 8.97922 38.8843 9.69809 39.296L8.20706 41.8992ZM14.0314 41.6355C14.7704 42.0099 15.0659 42.9125 14.6915 43.6515C14.3171 44.3904 13.4145 44.686 12.6755 44.3116L14.0314 41.6355ZM18.2107 46.8836C17.4475 46.5614 17.0901 45.6815 17.4123 44.9183C17.7345 44.1551 18.6144 43.7976 19.3776 44.1199L18.2107 46.8836ZM23.9645 45.8848C24.7472 46.1563 25.1615 47.0109 24.89 47.7936C24.6185 48.5763 23.7639 48.9906 22.9812 48.7191L23.9645 45.8848ZM28.856 50.4768C28.0525 50.2752 27.5645 49.4605 27.766 48.6569C27.9675 47.8534 28.7823 47.3654 29.5858 47.5669L28.856 50.4768ZM34.3615 48.5622C35.1788 48.6974 35.7318 49.4696 35.5965 50.2869C35.4613 51.1042 34.6892 51.6572 33.8718 51.5219L34.3615 48.5622ZM40.0028 52.205C39.1756 52.1582 38.543 51.4499 38.5898 50.6228C38.6365 49.7956 39.3449 49.163 40.172 49.2098L40.0028 52.205ZM45.03 49.2533C45.8578 49.2208 46.5552 49.8655 46.5877 50.6933C46.6203 51.521 45.9756 52.2185 45.1478 52.251L45.03 49.2533ZM51.2981 51.6421C50.4801 51.7729 49.7109 51.2158 49.5801 50.3977C49.4494 49.5797 50.0065 48.8105 50.8245 48.6797L51.2981 51.6421ZM55.575 47.6742C56.3759 47.4625 57.1969 47.9401 57.4086 48.741C57.6203 49.5419 57.1427 50.3628 56.3418 50.5745L55.575 47.6742ZM62.2108 48.6483C61.4399 48.9516 60.5691 48.5726 60.2658 47.8017C59.9624 47.0308 60.3415 46.16 61.1124 45.8566L62.2108 48.6483ZM65.5538 43.8671C66.2937 43.4946 67.1956 43.7925 67.5681 44.5324C67.9406 45.2724 67.6427 46.1742 66.9028 46.5467L65.5538 43.8671ZM72.2509 43.5006C71.5523 43.9458 70.625 43.7405 70.1798 43.0419C69.7345 42.3433 69.9399 41.416 70.6385 40.9707L72.2509 43.5006ZM74.6608 38.1821C75.3234 37.6849 76.2637 37.819 76.7608 38.4817C77.258 39.1443 77.1239 40.0845 76.4613 40.5817L74.6608 38.1821ZM81.2024 36.7048C80.5826 37.2545 79.6346 37.1977 79.0849 36.5779C78.5352 35.9581 78.592 35.0101 79.2118 34.4604L81.2024 36.7048ZM82.7892 31.0841C83.3745 30.4978 84.3242 30.4969 84.9105 31.0821C85.4969 31.6674 85.4978 32.6171 84.9125 33.2035L82.7892 31.0841ZM89.0762 28.7465C88.5301 29.3695 87.5824 29.4319 86.9594 28.8859C86.3364 28.3398 86.274 27.3921 86.8201 26.7691L89.0762 28.7465ZM89.9835 22.9761C90.4989 22.3275 91.4425 22.2195 92.0911 22.7349C92.7397 23.2503 92.8477 24.1939 92.3323 24.8425L89.9835 22.9761ZM95.9874 19.9857C95.5061 20.66 94.5694 20.8165 93.895 20.3353C93.2207 19.8541 93.0642 18.9173 93.5454 18.243L95.9874 19.9857ZM96.3419 14.1569C96.7967 13.4644 97.7267 13.2718 98.4191 13.7265C99.1116 14.1813 99.3042 15.1113 98.8495 15.8037L96.3419 14.1569ZM102.071 10.6622C101.646 11.3731 100.725 11.6046 100.014 11.1793C99.3031 10.7539 99.0716 9.83284 99.4969 9.12194L102.071 10.6622ZM2.5611 34.8317C3.25918 35.3046 3.95404 35.7649 4.64569 36.2126L3.01538 38.731C2.30592 38.2717 1.59363 37.7999 0.878527 37.3155L2.5611 34.8317ZM9.69809 39.296C11.1576 40.1319 12.602 40.9112 14.0314 41.6355L12.6755 44.3116C11.199 43.5635 9.70952 42.7598 8.20706 41.8992L9.69809 39.296ZM19.3776 44.1199C20.9251 44.7732 22.4541 45.3608 23.9645 45.8848L22.9812 48.7191C21.4069 48.173 19.8168 47.5617 18.2107 46.8836L19.3776 44.1199ZM29.5858 47.5669C31.1998 47.9716 32.7916 48.3025 34.3615 48.5622L33.8718 51.5219C32.2194 51.2486 30.5474 50.9009 28.856 50.4768L29.5858 47.5669ZM40.172 49.2098C41.816 49.3026 43.4353 49.316 45.03 49.2533L45.1478 52.251C43.4566 52.3175 41.7415 52.3032 40.0028 52.205L40.172 49.2098ZM50.8245 48.6797C52.4333 48.4225 54.0168 48.0862 55.575 47.6742L56.3418 50.5745C54.688 51.0118 53.0067 51.369 51.2981 51.6421L50.8245 48.6797ZM61.1124 45.8566C62.6171 45.2646 64.0975 44.6003 65.5538 43.8671L66.9028 46.5467C65.3672 47.3198 63.8032 48.0217 62.2108 48.6483L61.1124 45.8566ZM70.6385 40.9707C72.0019 40.1017 73.3426 39.1711 74.6608 38.1821L76.4613 40.5817C75.0846 41.6147 73.6812 42.5889 72.2509 43.5006L70.6385 40.9707ZM79.2118 34.4604C80.4252 33.3842 81.6177 32.2578 82.7892 31.0841L84.9125 33.2035C83.6999 34.4183 82.4633 35.5866 81.2024 36.7048L79.2118 34.4604ZM86.8201 26.7691C87.8939 25.5439 88.9484 24.2787 89.9835 22.9761L92.3323 24.8425C91.2684 26.1812 90.1831 27.4836 89.0762 28.7465L86.8201 26.7691ZM93.5454 18.243C94.4956 16.9116 95.4277 15.5488 96.3419 14.1569L98.8495 15.8037C97.9149 17.2268 96.9609 18.6216 95.9874 19.9857L93.5454 18.243ZM99.4969 9.12194C99.9205 8.41402 100.34 7.69991 100.755 6.97989L103.354 8.47809C102.931 9.21195 102.503 9.94008 102.071 10.6622L99.4969 9.12194Z" fill="#C1DAE6"/>
</svg>
